<svg xmlns="http://www.w3.org/2000/svg" version="1.1" xmlns:xlink="http://www.w3.org/1999/xlink" width="512" height="512" x="0" y="0" viewBox="0 0 64 64" style="enable-background:new 0 0 512 512" xml:space="preserve" class=""><g><path d="M57 8h-5V6a4 4 0 0 0-8 0v2h-8V6a4 4 0 0 0-8 0v2h-8V6a4 4 0 0 0-8 0v2H7a5 5 0 0 0-5 5v40a5 5 0 0 0 5 5h28a1 1 0 0 0 0-2H7a3.009 3.009 0 0 1-3-3V22h56v17a1 1 0 0 0 2 0V13a5 5 0 0 0-5-5ZM46 6a2 2 0 0 1 4 0v6a2 2 0 0 1-4 0ZM30 6a2 2 0 0 1 4 0v6a2 2 0 0 1-4 0ZM14 6a2 2 0 0 1 4 0v6a2 2 0 0 1-4 0Zm46 14H4v-7a3.009 3.009 0 0 1 3-3h5v2a4 4 0 0 0 8 0v-2h8v2a4 4 0 0 0 8 0v-2h8v2a4 4 0 0 0 8 0v-2h5a3.009 3.009 0 0 1 3 3Z" fill="#000000" opacity="1" data-original="#000000" class=""></path><path d="M30 29a2 2 0 0 0-2-2h-4a2 2 0 0 0-2 2v3a2 2 0 0 0 2 2h4a2 2 0 0 0 2-2Zm-6 3v-3h4v3ZM18 29a2 2 0 0 0-2-2h-4a2 2 0 0 0-2 2v3a2 2 0 0 0 2 2h4a2 2 0 0 0 2-2Zm-6 3v-3h4v3ZM52 34a2 2 0 0 0 2-2v-3a2 2 0 0 0-2-2h-4a2 2 0 0 0-2 2v3a2 2 0 0 0 2 2Zm-4-5h4v3h-4ZM30 38a2 2 0 0 0-2-2h-4a2 2 0 0 0-2 2v3a2 2 0 0 0 2 2h4a2 2 0 0 0 2-2Zm-6 3v-3h4v3ZM18 38a2 2 0 0 0-2-2h-4a2 2 0 0 0-2 2v3a2 2 0 0 0 2 2h4a2 2 0 0 0 2-2Zm-6 3v-3h4v3ZM28 45h-4a2 2 0 0 0-2 2v3a2 2 0 0 0 2 2h4a2 2 0 0 0 2-2v-3a2 2 0 0 0-2-2Zm-4 5v-3h4v3ZM36 34h4a2 2 0 0 0 2-2v-3a2 2 0 0 0-2-2h-4a2 2 0 0 0-2 2v3a2 2 0 0 0 2 2Zm0-5h4v3h-4ZM34 41a2 2 0 0 0 2 2 1 1 0 0 0 0-2v-3h4a1 1 0 0 0 0-2h-4a2 2 0 0 0-2 2ZM16 45h-4a2 2 0 0 0-2 2v3a2 2 0 0 0 2 2h4a2 2 0 0 0 2-2v-3a2 2 0 0 0-2-2Zm-4 5v-3h4v3Z" fill="#000000" opacity="1" data-original="#000000" class=""></path><path d="M49 36a13 13 0 1 0 13 13 13.015 13.015 0 0 0-13-13Zm0 24a11 11 0 1 1 11-11 11.013 11.013 0 0 1-11 11Z" fill="#000000" opacity="1" data-original="#000000" class=""></path><path d="M54.778 44.808 47 52.586l-3.535-3.536a1 1 0 0 0-1.414 1.414l4.242 4.243a1 1 0 0 0 1.414 0l8.485-8.485a1 1 0 0 0-1.414-1.414Z" fill="#000000" opacity="1" data-original="#000000" class=""></path></g></svg>