<svg xmlns="http://www.w3.org/2000/svg" version="1.1" xmlns:xlink="http://www.w3.org/1999/xlink" width="512" height="512" x="0" y="0" viewBox="0 0 512 512" style="enable-background:new 0 0 512 512" xml:space="preserve" class=""><g><path fill="#e2dee2" d="M181.694 468.74a37.436 37.436 0 0 0-.491 6.02c0 20.567 16.673 37.24 37.24 37.24h2.613c20.567 0 37.24-16.673 37.24-37.24 0-2.05-.173-4.059-.491-6.02z" opacity="1" data-original="#e2dee2"></path><path fill="#918291" d="M297.496 381.826c0-9.711-7.872-17.583-17.583-17.583H159.585c-9.711 0-17.583 7.872-17.583 17.583 0 9.711 7.872 17.583 17.583 17.583-9.711 0-17.583 7.872-17.583 17.583 0 9.711 7.872 17.583 17.583 17.583-9.711 0-17.583 7.872-17.583 17.583s7.872 17.583 17.583 17.583h120.328c9.711 0 17.583-7.872 17.583-17.583s-7.872-17.583-17.583-17.583c9.711 0 17.583-7.872 17.583-17.583 0-9.711-7.872-17.583-17.583-17.583 9.711 0 17.583-7.872 17.583-17.583z" opacity="1" data-original="#918291"></path><path fill="#cbc4cc" d="M213.056 474.76c0-1.705.133-3.377.354-5.02h-31.861a37.452 37.452 0 0 0-.346 5.02c0 20.567 16.673 37.24 37.24 37.24h2.613a37.12 37.12 0 0 0 14.62-2.983c-13.299-5.683-22.62-18.88-22.62-34.257z" opacity="1" data-original="#cbc4cc"></path><path fill="#fed402" d="M329.455 135.937c0-2.597.508-5.074 1.4-7.359-24.304-34.44-64.216-57.078-109.445-57.619-74.975-.899-137.554 60.902-137.554 135.883 0 46.718 23.578 87.924 59.48 112.381 9.859 6.716 16.697 17.022 18.699 28.782l2.935 17.238h109.559l2.859-16.793c2.034-11.95 8.909-22.488 18.918-29.325a136.642 136.642 0 0 0 33.149-32.103z" opacity="1" data-original="#fed402" class=""></path><path fill="#fac600" d="m162.035 348.005 2.765 16.238h36.404l-4.919-28.893c-2.002-11.76-8.84-22.065-18.699-28.782-35.903-24.457-59.48-65.664-59.48-112.381 0-51.719 29.776-97.164 72.855-120.091-60.733 13.425-107.105 68.2-107.105 132.745 0 46.718 23.578 87.924 59.48 112.381 9.859 6.717 16.697 17.023 18.699 28.783z" opacity="1" data-original="#fac600" class=""></path><path fill="#fb8801" d="M219.096 296.264c-2.526 0-5.026-.111-7.5-.317v69.297h15v-69.297a90.337 90.337 0 0 1-7.5.317z" opacity="1" data-original="#fb8801"></path><circle cx="219.096" cy="206.842" r="82.922" fill="#ffffff" opacity="1" data-original="#ffffff" class=""></circle><path fill="#f3f0f3" d="M178.543 206.842c0-38.473 26.205-70.817 61.738-80.181a83.038 83.038 0 0 0-21.184-2.742c-45.797 0-82.922 37.126-82.922 82.922s37.125 82.922 82.922 82.922c7.323 0 14.421-.959 21.184-2.742-35.533-9.362-61.738-41.706-61.738-80.179z" opacity="1" data-original="#f3f0f3" class=""></path><path fill="#fe9901" d="M219.096 297.264c-49.859 0-90.422-40.563-90.422-90.422s40.563-90.422 90.422-90.422c49.858 0 90.422 40.563 90.422 90.422s-40.564 90.422-90.422 90.422zm0-165.844c-41.588 0-75.422 33.834-75.422 75.422s33.834 75.422 75.422 75.422 75.422-33.834 75.422-75.422-33.834-75.422-75.422-75.422z" opacity="1" data-original="#fe9901" class=""></path><path fill="#918291" d="M279.913 399.409H159.585c-9.711 0-17.583-7.872-17.583-17.583 0-9.711 7.872-17.583 17.583-17.583h120.328c9.711 0 17.583 7.872 17.583 17.583 0 9.711-7.872 17.583-17.583 17.583z" opacity="1" data-original="#918291"></path><path fill="#7a6d79" d="M184.633 381.826c0-9.711 7.872-17.583 17.583-17.583h-42.631c-9.711 0-17.583 7.872-17.583 17.583 0 9.711 7.872 17.583 17.583 17.583h42.631c-9.711 0-17.583-7.872-17.583-17.583z" opacity="1" data-original="#7a6d79"></path><path fill="#a79ba7" d="M279.913 434.574H159.585c-9.711 0-17.583-7.872-17.583-17.583 0-9.711 7.872-17.583 17.583-17.583h120.328c9.711 0 17.583 7.872 17.583 17.583 0 9.711-7.872 17.583-17.583 17.583z" opacity="1" data-original="#a79ba7"></path><path fill="#918291" d="M184.633 416.991c0-9.711 7.872-17.583 17.583-17.583h-42.631c-9.711 0-17.583 7.872-17.583 17.583 0 9.711 7.872 17.583 17.583 17.583h42.631c-9.711 0-17.583-7.872-17.583-17.583zM279.913 469.74H159.585c-9.711 0-17.583-7.872-17.583-17.583 0-9.711 7.872-17.583 17.583-17.583h120.328c9.711 0 17.583 7.872 17.583 17.583 0 9.711-7.872 17.583-17.583 17.583z" opacity="1" data-original="#918291"></path><path fill="#7a6d79" d="M184.633 452.157c0-9.711 7.872-17.583 17.583-17.583h-42.631c-9.711 0-17.583 7.872-17.583 17.583 0 9.711 7.872 17.583 17.583 17.583h42.631c-9.711 0-17.583-7.872-17.583-17.583z" opacity="1" data-original="#7a6d79"></path><path fill="#00c27a" d="M210.982 235.953a7.5 7.5 0 0 1-5.303-2.196l-25.695-25.695a7.5 7.5 0 0 1 10.606-10.607l20.392 20.393 36.62-36.621a7.501 7.501 0 0 1 10.606 10.607l-41.923 41.924a7.505 7.505 0 0 1-5.303 2.195z" opacity="1" data-original="#00c27a" class=""></path><path fill="#fe9901" d="M52.559 214.342H20.407c-4.142 0-7.5-3.357-7.5-7.5s3.358-7.5 7.5-7.5h32.152c4.142 0 7.5 3.357 7.5 7.5s-3.358 7.5-7.5 7.5zM219.749 47.152a7.5 7.5 0 0 1-7.5-7.5V7.5c0-4.143 3.358-7.5 7.5-7.5s7.5 3.357 7.5 7.5v32.152a7.5 7.5 0 0 1-7.5 7.5zM47.121 314.014a7.5 7.5 0 0 1-3.757-13.996l27.844-16.076a7.5 7.5 0 0 1 7.5 12.99l-27.844 16.076a7.473 7.473 0 0 1-3.743 1.006zM136.161 69.552a7.497 7.497 0 0 1-6.502-3.751l-16.076-27.844a7.5 7.5 0 0 1 12.99-7.5l16.076 27.844a7.5 7.5 0 0 1-6.488 11.251zM303.337 69.552a7.5 7.5 0 0 1-6.488-11.251l16.076-27.844a7.5 7.5 0 0 1 12.99 7.5l-16.076 27.844a7.497 7.497 0 0 1-6.502 3.751zM74.952 130.748a7.465 7.465 0 0 1-3.743-1.006l-27.844-16.076a7.5 7.5 0 0 1 7.5-12.99l27.844 16.076a7.5 7.5 0 0 1-3.757 13.996z" opacity="1" data-original="#fe9901" class=""></path><path fill="#f6a96c" d="M371.114 217.22v-81.284c0-11.78-9.55-21.33-21.33-21.33s-21.33 9.55-21.33 21.33v127.977l1 .002c0-11.21 9.119-20.33 20.329-20.33h61.107c11.21 0 20.329 9.12 20.329 20.33s-9.119 20.329-20.329 20.329h-40.777v45.577c0 2.206-1.794 4-4 4h-5.851l.474.915v35.05H466.81v-35.05c18.026-1.188 32.283-16.177 32.283-34.504V217.22z" opacity="1" data-original="#f6a96c"></path><path fill="#f6a96c" d="M477.763 193.008c-11.78 0-21.33 9.55-21.33 21.33 0-11.78-9.55-21.33-21.33-21.33-11.78 0-21.33 9.55-21.33 21.33 0-11.78-9.55-21.33-21.33-21.33-11.78 0-21.33 9.55-21.33 21.33v29.247l42.659.229c9.846 1.407 17.447 9.872 17.447 20.102 0 1.796-.257 3.528-.696 5.188h4.579c11.78 0 21.33-9.55 21.33-21.33 0 11.78 9.55 21.33 21.33 21.33s21.33-9.55 21.33-21.33v-33.436c.001-11.781-9.549-21.33-21.329-21.33z" opacity="1" data-original="#f6a96c"></path><path fill="#ea9b58" d="M349.785 114.607c-11.78 0-21.33 9.55-21.33 21.33v127.978c0-11.507 9.118-20.86 20.521-21.289v-106.69c0-8.06 4.473-15.071 11.069-18.699a21.23 21.23 0 0 0-10.26-2.63zM410.892 243.585c.981 0 1.938.094 2.882.229v-29.476c0-11.78-9.55-21.33-21.33-21.33-11.78 0-21.33 9.55-21.33 21.33v29.247z" opacity="1" data-original="#ea9b58"></path><path fill="#d88a55" d="M391.712 242.585v-28.247c0-8.044 4.456-15.042 11.031-18.675a21.221 21.221 0 0 0-10.299-2.654c-11.78 0-21.33 9.55-21.33 21.33v28.247h20.598z" opacity="1" data-original="#d88a55"></path><path fill="#ea9b58" d="M435.104 193.008c-11.78 0-21.33 9.55-21.33 21.33v29.476c9.846 1.407 17.447 9.872 17.447 20.102 0 1.796-.257 3.528-.696 5.188h4.579c11.78 0 21.33-9.55 21.33-21.33v-33.436c-.001-11.781-9.55-21.33-21.33-21.33z" opacity="1" data-original="#ea9b58"></path><path fill="#d88a55" d="M435.103 193.008c-11.78 0-21.33 9.55-21.33 21.33v28.465c10.413 1.41 18.447 10.313 18.447 21.112 0 1.793-.245 3.525-.662 5.188h2.787v-54.766c0-8.049 4.462-15.051 11.044-18.683a21.226 21.226 0 0 0-10.286-2.646z" opacity="1" data-original="#d88a55"></path><path fill="#ea9b58" d="M477.763 269.103c-11.78 0-21.33-9.55-21.33-21.33v-33.436c0-11.78 9.55-21.33 21.33-21.33 11.78 0 21.33 9.55 21.33 21.33v33.436c0 11.78-9.55 21.33-21.33 21.33z" opacity="1" data-original="#ea9b58"></path><path fill="#d88a55" d="M476.979 247.773v-33.436c0-8.054 4.467-15.061 11.057-18.691a21.226 21.226 0 0 0-10.273-2.639c-11.78 0-21.33 9.55-21.33 21.33v33.436c0 11.78 9.55 21.33 21.33 21.33 3.726 0 7.225-.96 10.273-2.639-6.589-3.629-11.057-10.636-11.057-18.691z" opacity="1" data-original="#d88a55"></path><path fill="#fed2a4" d="M410.891 242.585h-61.107c-11.78 0-21.33 9.55-21.33 21.33v36.318c0 19.103 15.486 34.589 34.589 34.589h3.071a5 5 0 0 0 5-5v-44.577h39.777c11.78 0 21.33-9.55 21.33-21.33 0-11.78-9.55-21.33-21.33-21.33z" opacity="1" data-original="#fed2a4"></path><path fill="#ffbd86" d="M348.984 320.648V278c0-8.284 6.716-15 15-15h67.437c.255 0 .503.029.756.038-.463-11.37-9.801-20.453-21.285-20.453h-61.107c-11.78 0-21.33 9.55-21.33 21.33v36.318c0 14.926 9.454 27.643 22.7 32.491a34.516 34.516 0 0 1-2.171-12.076z" opacity="1" data-original="#ffbd86"></path><path fill="#8ac9fe" d="M339.984 377.661v49.746a8.874 8.874 0 0 0 8.874 8.874h129.83a8.874 8.874 0 0 0 8.874-8.874v-49.746a8.874 8.874 0 0 0-8.874-8.874h-129.83a8.875 8.875 0 0 0-8.874 8.874z" opacity="1" data-original="#8ac9fe"></path><path fill="#60b7ff" d="M382.576 427.408v-49.746a8.874 8.874 0 0 1 8.874-8.874h-42.592a8.874 8.874 0 0 0-8.874 8.874v49.746a8.874 8.874 0 0 0 8.874 8.874h42.592a8.874 8.874 0 0 1-8.874-8.874z" opacity="1" data-original="#60b7ff"></path></g></svg>