<svg xmlns="http://www.w3.org/2000/svg" version="1.1" xmlns:xlink="http://www.w3.org/1999/xlink" width="512" height="512" x="0" y="0" viewBox="0 0 496.485 496.485" style="enable-background:new 0 0 512 512" xml:space="preserve" class=""><g><circle cx="254.448" cy="136.533" r="136.533" style="" fill="#2ea2db" data-original="#2ea2db" class=""></circle><path d="M473.212 414.255h-36.461v74.473h36.461c8.533 0 15.515-6.982 15.515-15.515V429.77c0-8.534-6.982-15.515-15.515-15.515z" style="" fill="#f16051" data-original="#f16051"></path><path d="M473.212 496.485h-36.461c-4.655 0-7.758-3.103-7.758-7.758v-74.473c0-4.655 3.103-7.758 7.758-7.758h36.461c13.188 0 23.273 10.085 23.273 23.273v43.442c0 13.189-10.085 23.274-23.273 23.274zm-28.703-15.515h28.703c4.655 0 7.758-3.103 7.758-7.758V429.77c0-4.655-3.103-7.758-7.758-7.758h-28.703v58.958z" style="" fill="#193651" data-original="#193651" class=""></path><path d="M79.127 488.727v-74.472L7.758 451.491z" style="" fill="#fdbf5e" data-original="#fdbf5e" class=""></path><path d="M79.127 496.485c-1.552 0-2.327 0-3.879-.776l-71.37-37.236C1.552 456.921 0 454.594 0 451.491s1.552-5.43 3.879-6.982l71.37-37.236c2.327-1.552 5.43-.776 7.758 0 2.327 1.552 3.879 3.879 3.879 6.982v74.473c0 2.327-1.552 5.43-3.879 6.982-.777.775-2.328.775-3.88.775zm-54.303-44.994 47.321 24.824v-49.648l-47.321 24.824z" style="" fill="#193651" data-original="#193651" class=""></path><path d="M79.127 414.255h356.849v74.473H79.127z" style="" fill="#e1e6e9" data-original="#e1e6e9"></path><path d="M436.752 496.485H79.903c-4.655 0-7.758-3.103-7.758-7.758v-74.473c0-4.655 3.103-7.758 7.758-7.758h356.849c4.655 0 7.758 3.103 7.758 7.758v74.473c-.001 4.655-3.88 7.758-7.758 7.758zM86.885 480.97h341.333v-58.958H86.885v58.958z" style="" fill="#193651" data-original="#193651" class=""></path><path d="M102.4 439.079h310.303v24.824H102.4z" style="" fill="#ffffff" data-original="#ffffff" class=""></path><path d="M79.127 358.4h271.515v55.079H79.127z" style="" fill="#2ea2db" data-original="#2ea2db" class=""></path><path d="M350.642 422.012H79.127c-4.655 0-7.758-3.103-7.758-7.758v-55.079c0-4.655 3.103-7.758 7.758-7.758h271.515c4.655 0 7.758 3.103 7.758 7.758v55.079c0 3.879-3.103 7.758-7.758 7.758zM86.885 406.497h256v-39.564h-256v39.564z" style="" fill="#193651" data-original="#193651" class=""></path><path d="M112.485 366.933h5.43v39.564h-5.43zM124.897 366.933h13.188v39.564h-13.188zM312.475 366.235h5.43v39.564h-5.43zM292.461 366.235h13.188v39.564h-13.188z" style="" fill="#ffffff" data-original="#ffffff" class=""></path><path d="M79.127 303.321h271.515V358.4H79.127z" style="" fill="#f16051" data-original="#f16051"></path><path d="M350.642 366.158H79.127c-4.655 0-7.758-3.103-7.758-7.758v-55.079c0-4.655 3.103-7.758 7.758-7.758h271.515c4.655 0 7.758 3.103 7.758 7.758V358.4c0 4.655-3.103 7.758-7.758 7.758zM86.885 350.642h256v-39.564h-256v39.564z" style="" fill="#193651" data-original="#193651" class=""></path><path d="M112.485 311.079h5.43v39.564h-5.43zM124.897 311.079h13.188v39.564h-13.188zM312.475 311.699h5.43v39.564h-5.43zM292.461 311.699h13.188v39.564h-13.188zM465.455 378.57h-91.539c-13.188 0-23.273 10.085-23.273 23.273v11.636h138.085v-11.636c-.001-12.413-10.086-23.273-23.273-23.273z" style="" fill="#ffffff" data-original="#ffffff" class=""></path><path d="M465.455 370.812h-91.539c-17.067 0-31.03 13.964-31.03 31.03v11.636c0 4.655 3.103 7.758 7.758 7.758h138.085c4.655 0 7.758-3.103 7.758-7.758v-11.636c-.002-17.066-13.966-31.03-31.032-31.03zm15.515 35.685H358.4v-3.879c0-8.533 6.982-15.515 15.515-15.515h91.539c8.533 0 15.515 6.982 15.515 15.515v3.879z" style="" fill="#193651" data-original="#193651" class=""></path><path d="M407.273 386.327c-3.879-.776-6.206-5.43-5.43-9.309l42.667-158.255L283.927 56.63c-3.103-3.103-3.103-7.758 0-10.861 3.103-3.103 7.758-3.103 10.861 0l163.685 165.236c2.327 2.327 2.327 4.655 2.327 7.758l-44.218 162.133c-1.552 3.88-5.43 6.207-9.309 5.431zM150.497 152.824h15.515v13.964h-15.515z" style="" fill="#193651" data-original="#193651" class=""></path><path d="M160.568 189.128h15.515v13.963h-15.515z" style="" transform="rotate(150 168.328 196.112)" fill="#193651" data-original="#193651" class=""></path><path d="M186.721 216.002h15.515v13.964h-15.515z" style="" transform="rotate(120.013 194.48 222.984)" fill="#193651" data-original="#193651" class=""></path><path d="M224.194 224.97h13.964v15.515h-13.964z" style="" fill="#193651" data-original="#193651" class=""></path><path d="m323.491 40.339-33.358 34.134-116.363 36.46 106.278 106.279 37.237-116.364 33.357-33.357z" style="" fill="#fdbf5e" data-original="#fdbf5e" class=""></path><path d="M280.048 224.97c-2.327 0-3.879-.776-5.43-2.327L168.339 116.364c-1.552-1.552-2.327-4.655-2.327-6.982.776-2.327 2.327-4.655 5.43-5.43l114.036-35.685 32.582-33.358c3.103-3.103 7.758-3.103 10.861 0l27.152 27.152c1.552 1.552 2.327 3.103 2.327 5.43 0 2.327-.776 3.879-2.327 5.43l-32.582 32.582-35.685 114.036c-.776 2.327-3.103 4.655-5.43 5.43l-2.328.001zm-91.539-110.934 88.436 88.436L309.527 98.52c0-1.552.776-2.327 1.552-3.103l27.927-27.927-15.515-15.515-27.927 27.927c-.776.776-2.327 1.552-3.103 1.552l-103.952 32.582z" style="" fill="#193651" data-original="#193651" class=""></path><path d="m269.964 107.055-51.2 16.29 48.872 48.873 16.291-51.2zM200.921 138.861c-13.964 13.964-13.964 37.236 0 51.2 13.964 13.964 37.236 13.964 51.2 0l-51.2-51.2z" style="" fill="#ffffff" data-original="#ffffff" class=""></path><path d="M226.521 208.679c-11.636 0-22.497-4.655-31.03-13.188s-13.188-19.394-13.188-31.03 4.655-22.497 13.188-31.03c3.103-3.103 7.758-3.103 10.861 0l51.2 51.2c1.552 1.552 2.327 3.103 2.327 5.43 0 2.327-.776 3.879-2.327 5.43-8.534 8.533-19.394 13.188-31.031 13.188zm-24.824-58.182c-2.327 3.879-3.879 9.309-3.879 13.964 0 7.758 3.103 14.739 8.533 20.17 9.309 8.533 23.273 10.861 34.133 4.655l-38.787-38.789z" style="" fill="#193651" data-original="#193651" class=""></path><circle cx="453.042" cy="216.436" r="22.497" style="" fill="#ffffff" data-original="#ffffff" class=""></circle><path d="M453.042 246.691c-16.291 0-30.255-13.188-30.255-30.255 0-16.291 13.188-30.255 30.255-30.255 16.291 0 30.255 13.188 30.255 30.255 0 16.291-13.964 30.255-30.255 30.255zm0-44.994c-7.758 0-14.739 6.206-14.739 14.739 0 7.758 6.206 14.739 14.739 14.739 7.758 0 14.739-6.206 14.739-14.739.001-7.757-6.981-14.739-14.739-14.739z" style="" fill="#193651" data-original="#193651" class=""></path></g></svg>